<?xml version="1.0" encoding="UTF-8"?>
<svg version="1.1" xmlns="http://www.w3.org/2000/svg" width="159" height="66">
<path d="M0 0 C3.2275022 1.90043468 4.84691146 3.35222656 6.7265625 6.60546875 C7.31948146 11.27470558 7.255439 13.50364272 5.2265625 17.73046875 C0.2948768 23.40190731 -5.27433593 26.98080566 -12.2734375 29.60546875 C-11.2834375 30.92546875 -10.2934375 32.24546875 -9.2734375 33.60546875 C-2.49550913 32.41933129 0.58757064 27.62967853 4.7265625 22.60546875 C6.01251997 21.10057136 7.30379557 19.60019407 8.6015625 18.10546875 C9.43300781 17.1309375 9.43300781 17.1309375 10.28125 16.13671875 C12.35024365 13.94470386 13.51877663 13.62855607 16.5390625 13.29296875 C20.57329135 13.68848138 22.06797008 14.55590686 24.7265625 17.60546875 C25.42591295 21.80157144 25.06476387 23.95508149 23.1015625 27.73046875 C19.75725573 31.7788401 16.84844838 34.89817346 11.7265625 36.60546875 C8.02625709 36.60546875 5.87389323 35.4788799 2.7265625 33.60546875 C1.829375 34.31703125 1.829375 34.31703125 0.9140625 35.04296875 C-3.39959025 38.12414928 -8.14676147 38.40760173 -13.2734375 37.60546875 C-15.85174935 36.20102246 -17.23421582 34.80155363 -19.2734375 32.60546875 C-19.2734375 31.94546875 -19.2734375 31.28546875 -19.2734375 30.60546875 C-21.88871131 32.97166886 -23.53784312 35.54751675 -25.2734375 38.60546875 C-26.5934375 38.27546875 -27.9134375 37.94546875 -29.2734375 37.60546875 C-30.44677326 34.14957818 -30.39572746 32.87104122 -28.83984375 29.4921875 C-28.17855469 28.43644531 -27.51726563 27.38070313 -26.8359375 26.29296875 C-26.17722656 25.22433594 -25.51851562 24.15570312 -24.83984375 23.0546875 C-24.32292969 22.24644531 -23.80601563 21.43820313 -23.2734375 20.60546875 C-24.0571875 20.33734375 -24.8409375 20.06921875 -25.6484375 19.79296875 C-28.2734375 18.60546875 -28.2734375 18.60546875 -30.2734375 15.60546875 C-30.60111224 12.0665816 -30.52486648 9.3597557 -29.3984375 5.98046875 C-22.16567005 -2.10321252 -9.88771802 -4.21230947 0 0 Z M-23.3359375 8.98046875 C-24.58711574 12.48376781 -23.74449553 14.27623216 -22.2734375 17.60546875 C-17.78904774 16.11067216 -16.53205933 12.65333758 -14.08984375 8.7578125 C-13.49042969 8.04753906 -12.89101563 7.33726563 -12.2734375 6.60546875 C-10.9534375 6.60546875 -9.6334375 6.60546875 -8.2734375 6.60546875 C-8.7655679 11.34655598 -9.96506744 14.0740399 -12.8359375 17.85546875 C-15.44332395 20.91674666 -15.44332395 20.91674666 -16.2734375 24.60546875 C-10.25774487 23.37777638 -6.44896518 21.13613152 -2.2734375 16.60546875 C-0.20413008 13.43684176 0.77740928 11.69867443 0.6015625 7.91796875 C-0.37648012 5.33314182 -1.10436227 4.29677411 -3.2734375 2.60546875 C-11.40788402 1.16769237 -17.8531227 2.66692443 -23.3359375 8.98046875 Z M12.7265625 21.60546875 C10.46565693 25.21855579 8.7265625 28.29800429 8.7265625 32.60546875 C12.87781199 31.29008135 14.69094182 29.88310091 17.0390625 26.23046875 C17.55082031 25.45960937 18.06257813 24.68875 18.58984375 23.89453125 C20.02307348 21.43433193 20.02307348 21.43433193 19.7265625 17.60546875 C16.41546243 17.60546875 15.07718185 19.36678365 12.7265625 21.60546875 Z " fill="#F4A7FB" transform="translate(30.2734375,1.39453125)"/>
<path d="M0 0 C2.125 0.375 2.125 0.375 4 1 C3.67 1.969375 3.34 2.93875 3 3.9375 C1.94826637 6.62149574 1.94826637 6.62149574 2 8 C2.66 7.01 3.32 6.02 4 5 C4.99 5.33 5.98 5.66 7 6 C6.44299928 9.23060419 5.70784878 11.0658223 3 13 C0.5 13.375 0.5 13.375 -2 13 C-3.8125 11.5 -3.8125 11.5 -5 10 C-5.4021875 10.64582031 -5.804375 11.29164062 -6.21875 11.95703125 C-8 14 -8 14 -10.09375 14.57421875 C-10.8878125 14.61160156 -11.681875 14.64898437 -12.5 14.6875 C-13.37785156 14.74164063 -14.25570312 14.79578125 -15.16015625 14.8515625 C-16.56587891 14.92503906 -16.56587891 14.92503906 -18 15 C-19.97980039 15.18068582 -21.9590025 15.36806598 -23.9375 15.5625 C-26.65515724 15.81666938 -29.26834401 16 -32 16 C-34.57120838 16.47364365 -37.05212968 17.01525747 -39.5625 17.75 C-42 18 -42 18 -44.3125 16.5625 C-44.869375 16.046875 -45.42625 15.53125 -46 15 C-45.48964169 10.6109185 -44.47785723 7.66291938 -42 4 C-41.01 4.33 -40.02 4.66 -39 5 C-39.33 7.31 -39.66 9.62 -40 12 C-38.35 9.03 -36.7 6.06 -35 3 C-34.01 3.33 -33.02 3.66 -32 4 C-32.33 6.31 -32.66 8.62 -33 11 C-32.69707031 10.43410156 -32.39414063 9.86820313 -32.08203125 9.28515625 C-28.61749571 3.21955403 -28.61749571 3.21955403 -25.1875 2 C-24.465625 2 -23.74375 2 -23 2 C-22.01 3.32 -21.02 4.64 -20 6 C-18.68 4.35 -17.36 2.7 -16 1 C-13.625 1.3125 -13.625 1.3125 -11 2 C-10.34 2.99 -9.68 3.98 -9 5 C-8.34 3.68 -7.68 2.36 -7 1 C-6.21625 1.20625 -5.4325 1.4125 -4.625 1.625 C-3.75875 1.74875 -2.8925 1.8725 -2 2 C-1.34 1.34 -0.68 0.68 0 0 Z M-11 7 C-10 9 -10 9 -10 9 Z M-17 11 C-16.34 11.66 -15.68 12.32 -15 13 C-14.34 12.34 -13.68 11.68 -13 11 C-14.32 11 -15.64 11 -17 11 Z M-35 12 C-34 14 -34 14 -34 14 Z M-28 12 C-27.34 12.66 -26.68 13.32 -26 14 C-25.34 13.34 -24.68 12.68 -24 12 C-25.32 12 -26.64 12 -28 12 Z M-42 13 C-41 15 -41 15 -41 15 Z " fill="#FCBA44" transform="translate(152,38)"/>
<path d="M0 0 C-1.7342733 4.97357688 -4.43327957 9.31498953 -7.125 13.8125 C-7.59292969 14.60076172 -8.06085938 15.38902344 -8.54296875 16.20117188 C-9.69215397 18.13602454 -10.84457003 20.06887228 -12 22 C-8.59176526 20.41892359 -6.93791261 18.95796777 -4.75 15.875 C-4.22921875 15.15054687 -3.7084375 14.42609375 -3.171875 13.6796875 C-2.78515625 13.12539062 -2.3984375 12.57109375 -2 12 C-0.68 12.33 0.64 12.66 2 13 C2.48735948 15.68047713 2.36228963 17.41825895 0.91015625 19.75 C-2.56125861 24.02251059 -6.09521589 26.54760794 -11 29 C-10.67 29.66 -10.34 30.32 -10 31 C-9.071875 30.154375 -8.14375 29.30875 -7.1875 28.4375 C-5.60546875 26.99609375 -5.60546875 26.99609375 -4 26 C-3.01 26.33 -2.02 26.66 -1 27 C-1.0625 29.25 -1.0625 29.25 -2 32 C-5.78183012 34.81783421 -7.5953158 36.05300695 -12.3125 35.875 C-15 35 -15 35 -17 33 C-17.99 35.475 -17.99 35.475 -19 38 C-20.65 37.67 -22.3 37.34 -24 37 C-23.69101269 29.3934594 -20.73377189 23.91731318 -17.125 17.3125 C-16.31095703 15.78399414 -16.31095703 15.78399414 -15.48046875 14.22460938 C-6.60788702 -2.35995965 -6.60788702 -2.35995965 0 0 Z " fill="#F4A7FA" transform="translate(96,2)"/>
<path d="M0 0 C1.32 0.66 2.64 1.32 4 2 C3.125 7.75 3.125 7.75 2 10 C2.66 10 3.32 10 4 10 C4.33 10.99 4.66 11.98 5 13 C3.1746875 13.495 3.1746875 13.495 1.3125 14 C-3.10777054 15.64584541 -4.86796539 17.92973906 -7.1015625 21.9921875 C-8.13806045 24.30853509 -8.7628057 26.46992742 -9 29 C-4.32751069 26.17477391 -1.34003602 23.32239956 2 19 C3.32 19.33 4.64 19.66 6 20 C5.58306691 24.8642194 3.67251308 26.89876673 0 30 C-3.07811754 31.92382346 -4.97980673 33.02429032 -8.625 32.9375 C-11.63747948 31.74836336 -13.08579729 30.62316667 -15 28 C-15.70325709 24.04417885 -15.0270238 21.76761053 -13 18.4375 C-11.057931 15.09956891 -10.54742827 13.73371677 -11 10 C-10.21625 9.9175 -9.4325 9.835 -8.625 9.75 C-5.90805183 9.29519511 -5.90805183 9.29519511 -4.9375 7.25 C-4.628125 6.5075 -4.31875 5.765 -4 5 C-2.6949419 3.31110128 -1.36639342 1.6396721 0 0 Z " fill="#F3A8FA" transform="translate(131,6)"/>
<path d="M0 0 C1.875 1.125 1.875 1.125 3 3 C3.73496964 7.13420421 3.17448716 8.71976304 0.9375 12.3125 C-2.50465072 15.46170172 -4.39503596 15.91311389 -9 16 C-9.66 15.67 -10.32 15.34 -11 15 C-10.67 15.99 -10.34 16.98 -10 18 C-6.53058454 17.54177532 -3.32604951 17.10868317 0 16 C0 20 0 20 -1.5 21.75 C-5.04310695 23.52155347 -8.11086343 23.57498528 -12 23 C-15.09033184 21.573693 -15.76440061 20.56821029 -17.0625 17.4375 C-16.96732506 12.20287837 -14.87823384 8.30997067 -12 4 C-8.09536181 0.51074885 -5.2412739 -0.81530927 0 0 Z M-2 4 C-5.24299151 6.38957269 -7.50902342 8.2047869 -9 12 C-5.08597051 10.73058503 -3.20927127 9.48832306 -1 6 C-1.33 5.34 -1.66 4.68 -2 4 Z " fill="#F3A8FA" transform="translate(113,15)"/>
<path d="M0 0 C2 1.125 2 1.125 3 3 C3 5.9375 3 5.9375 2 9 C-0.5625 11.375 -0.5625 11.375 -3 13 C-3.66 12.67 -4.32 12.34 -5 12 C-4.125 7.25 -4.125 7.25 -3 5 C-7.69267989 9.0409188 -9.7650674 13.26908345 -12 19 C-11.45730469 18.7834375 -10.91460937 18.566875 -10.35546875 18.34375 C-9.64003906 18.0653125 -8.92460938 17.786875 -8.1875 17.5 C-7.47980469 17.2215625 -6.77210937 16.943125 -6.04296875 16.65625 C-4 16 -4 16 -1 16 C-1.2958675 18.86005251 -1.84079164 19.85571743 -4 21.8125 C-8.15026772 23.4553143 -11.69185115 22.96132247 -16 22 C-17.53051646 20.46948354 -17.28000829 19.0675065 -17.375 16.9375 C-17.30078269 10.27914704 -14.06928843 6.17819835 -9.625 1.5 C-6.17358516 -0.47223705 -3.91285852 -0.5072224 0 0 Z " fill="#F4A7FB" transform="translate(72,15)"/>
<path d="M0 0 C2.9375 0.5 2.9375 0.5 5.9375 2.5 C3.74712826 9.22045875 1.37984339 15.86724003 -1.0625 22.5 C-2.3825 22.5 -3.7025 22.5 -5.0625 22.5 C-6.0625 19.5 -6.0625 19.5 -5.125 17.3125 C-4.5990625 16.4153125 -4.5990625 16.4153125 -4.0625 15.5 C-5.3825 14.51 -6.7025 13.52 -8.0625 12.5 C-7.52413809 6.84719997 -6.26041255 1.02210817 0 0 Z M-0.0625 3.5 C-2.0425 6.47 -2.0425 6.47 -4.0625 9.5 C-3.7325 10.16 -3.4025 10.82 -3.0625 11.5 C-1.7425 9.52 -0.4225 7.54 0.9375 5.5 C0.6075 4.84 0.2775 4.18 -0.0625 3.5 Z " fill="#FBBA47" transform="translate(101.0625,42.5)"/>
<path d="M0 0 C1.32 0.33 2.64 0.66 4 1 C3.67 2.65 3.34 4.3 3 6 C2.34 6 1.68 6 1 6 C0.67 4.02 0.34 2.04 0 0 Z " fill="#F7A5FC" transform="translate(133,25)"/>
</svg>
